grf
version=1
nRows=5
nColumns=73
inDegrees=yes
endheader
time	ground_force_1_vx	ground_force_1_vy	ground_force_1_vz	ground_force_1_px	ground_force_1_py	ground_force_1_pz	ground_moment_1_mx	ground_moment_1_my	ground_moment_1_mz	ground_force_2_vx	ground_force_2_vy	ground_force_2_vz	ground_force_2_px	ground_force_2_py	ground_force_2_pz	ground_moment_2_mx	ground_moment_2_my	ground_moment_2_mz	ground_force_3_vx	ground_force_3_vy	ground_force_3_vz	ground_force_3_px	ground_force_3_py	ground_force_3_pz	ground_moment_3_mx	ground_moment_3_my	ground_moment_3_mz	ground_force_4_vx	ground_force_4_vy	ground_force_4_vz	ground_force_4_px	ground_force_4_py	ground_force_4_pz	ground_moment_4_mx	ground_moment_4_my	ground_moment_4_mz	ground_force_5_vx	ground_force_5_vy	ground_force_5_vz	ground_force_5_px	ground_force_5_py	ground_force_5_pz	ground_moment_5_mx	ground_moment_5_my	ground_moment_5_mz	ground_force_6_vx	ground_force_6_vy	ground_force_6_vz	ground_force_6_px	ground_force_6_py	ground_force_6_pz	ground_moment_6_mx	ground_moment_6_my	ground_moment_6_mz	ground_force_7_vx	ground_force_7_vy	ground_force_7_vz	ground_force_7_px	ground_force_7_py	ground_force_7_pz	ground_moment_7_mx	ground_moment_7_my	ground_moment_7_mz	ground_force_8_vx	ground_force_8_vy	ground_force_8_vz	ground_force_8_px	ground_force_8_py	ground_force_8_pz	ground_moment_8_mx	ground_moment_8_my	ground_moment_8_mz
4.127000	0.000000	0.000000	0.000000	0.000000	0.000000	0.000000	0.000000	0.000000	0.000000	3.727919	427.927604	-4.845939	0.390193	0.000000	0.408702	0.000000	2.084741	0.000000	-2.801047	263.923447	-11.671911	0.428484	0.000000	0.420639	-0.000000	0.961020	-0.000000	6.400851	163.679391	6.831764	0.336478	0.000000	0.394841	-0.000000	0.435288	0.000000	-3.032596	270.797579	-11.410408	0.427711	0.000000	0.417282	-0.000000	1.029928	0.000000	5.602087	154.897614	6.001573	0.344397	0.000000	0.395227	-0.000000	0.409506	-0.000000	0.000000	0.000000	0.000000	0.000000	0.000000	0.000000	0.000000	0.000000	0.000000	2.964617	422.719772	-6.031939	0.393180	0.000000	0.409006	-0.000000	2.112603	-0.000000
4.128000	0.000000	0.000000	0.000000	0.000000	0.000000	0.000000	0.000000	0.000000	0.000000	4.135671	429.005638	-4.654734	0.389209	0.000000	0.408527	0.000000	2.093109	0.000000	-2.779357	260.887280	-11.826330	0.428667	0.000000	0.420634	-0.000000	0.931422	-0.000000	6.796844	167.839946	7.174303	0.335401	0.000000	0.394687	-0.000000	0.438257	0.000000	-3.030000	267.423921	-11.546135	0.427991	0.000000	0.417318	-0.000000	0.994853	0.000000	5.992890	159.318629	6.333410	0.343333	0.000000	0.395161	-0.000000	0.419326	-0.000000	0.000000	0.000000	0.000000	0.000000	0.000000	0.000000	0.000000	0.000000	0.000000	3.353067	423.754884	-5.836641	0.392244	0.000000	0.408842	-0.000000	2.120782	-0.000000
4.129000	0.000000	0.000000	0.000000	0.000000	0.000000	0.000000	0.000000	0.000000	0.000000	4.547273	430.112262	-4.464770	0.388227	0.000000	0.408352	0.000000	2.101322	0.000000	-2.751054	258.028927	-11.987041	0.428837	0.000000	0.420616	-0.000000	0.902786	-0.000000	7.190130	171.847589	7.522328	0.334279	0.000000	0.394540	-0.000000	0.439326	0.000000	-3.014570	264.211354	-11.693955	0.428255	0.000000	0.417333	-0.000000	0.961429	0.000000	6.381541	163.604913	6.673903	0.342183	0.000000	0.395097	-0.000000	0.427136	-0.000000	0.000000	0.000000	0.000000	0.000000	0.000000	0.000000	0.000000	0.000000	0.000000	3.752684	424.817182	-5.644785	0.391304	0.000000	0.408674	-0.000000	2.129987	-0.000000
4.130000	0.000000	0.000000	0.000000	0.000000	0.000000	0.000000	0.000000	0.000000	0.000000	4.960686	431.242695	-4.275535	0.387250	0.000000	0.408180	0.000000	2.109631	0.000000	-2.719110	255.349391	-12.152623	0.428993	0.000000	0.420588	-0.000000	0.875246	-0.000000	7.581484	175.696531	7.874895	0.333120	0.000000	0.394402	-0.000000	0.438792	0.000000	-2.987733	261.164027	-11.851888	0.428500	0.000000	0.417330	-0.000000	0.929328	0.000000	6.767461	167.747264	7.020960	0.340962	0.000000	0.395036	-0.000000	0.432846	-0.000000	0.000000	0.000000	0.000000	0.000000	0.000000	0.000000	0.000000	0.000000	0.000000	4.161453	425.901644	-5.456469	0.390359	0.000000	0.408503	-0.000000	2.139576	-0.000000
4.131000	0.000000	0.000000	0.000000	0.000000	0.000000	0.000000	0.000000	0.000000	0.000000	5.374549	432.390766	-4.086573	0.386279	0.000000	0.408012	-0.000000	2.118440	0.000000	-2.686489	252.847193	-12.321798	0.429130	0.000000	0.420551	-0.000000	0.849099	-0.000000	7.972379	179.382133	8.231151	0.331934	0.000000	0.394276	-0.000000	0.436978	0.000000	-2.951913	258.284672	-12.018229	0.428723	0.000000	0.417310	-0.000000	0.898408	0.000000	7.150771	171.738426	7.372999	0.339682	0.000000	0.394978	-0.000000	0.436601	-0.000000	0.000000	0.000000	0.000000	0.000000	0.000000	0.000000	0.000000	0.000000	0.000000	4.577045	427.003760	-5.271561	0.389411	0.000000	0.408329	-0.000000	2.149341	-0.000000
